# xmcd
#
# Track frame offsets: 
#        150
#        13641
#        28545
#        37846
#        48049
#        62863
#        83301
#        103711
#        118332
#        130114
#        139510
#        151760
#        165256
#        177244
#        189839
#        199193
#        215902
#        226367
#        239777
#        251869
#
# Disc length: 3608 seconds
#
# Revision: 0
# Processed by: cddbd v1.5.2PL0 Copyright (c) Steve Scherf et al.
# Submitted via: ExactAudioCopy v0.95a4
#
DISCID=060e1614
DTITLE=Various Artist - Northern Soul - The Essential Collection [CD2)
DYEAR=2006
DGENRE=Soul
TTITLE0=Brenda Holloway - Think It Over (Before You Break My Heart)
TTITLE1=Brother To Brother - In The Bottle
TTITLE2=Lorraine Silver - Lost Summer Love
TTITLE3=Tony Clarke - Landslide
TTITLE4=The Whispers - I've Got A Feeling
TTITLE5=Jimmy Helms - Romeo and Juliet
TTITLE6=The Moments - Nine Times
TTITLE7=Derek Martin - Beautiful Woman
TTITLE8=Jackie Trent - You Baby
TTITLE9=Kenny Bernard - Ain't No Soul (Left In These Old Shoes)
TTITLE10=Frankie Crocker - Ton Of Dynamite
TTITLE11=Timebox - I'll Always Love You
TTITLE12=The Playthings - Stop What You Doing
TTITLE13=The Continental Four - Heaven Must Have Sent You
TTITLE14=Geno Washington and The Ram Jam Band - She Shot A Hole In My So
TTITLE14=ul
TTITLE15=(Baltimore) First Class - Filled With Desire
TTITLE16=Willie and The Mighty Magnificents - Check It Baby
TTITLE17=Chuch Jackson - I've Got The Need
TTITLE18=Linda Jones - Hypnotized
TTITLE19=Terry Caller - Ordinary Joe
EXTD=
EXTT0=
EXTT1=
EXTT2=
EXTT3=
EXTT4=
EXTT5=
EXTT6=
EXTT7=
EXTT8=
EXTT9=
EXTT10=
EXTT11=
EXTT12=
EXTT13=
EXTT14=
EXTT15=
EXTT16=
EXTT17=
EXTT18=
EXTT19=
PLAYORDER=
